<?xml version="1.0" encoding="utf-8"?>
<!-- Generator: Adobe Illustrator 19.0.0, SVG Export Plug-In . SVG Version: 6.00 Build 0)  -->
<svg version="1.1" id="Layer_1" xmlns="http://www.w3.org/2000/svg" xmlns:xlink="http://www.w3.org/1999/xlink" x="0px" y="0px"
	 viewBox="0 0 367.1 197.4" style="enable-background:new 0 0 367.1 197.4;" xml:space="preserve">
<style type="text/css">
	.st0{fill:none;stroke:#000000;stroke-miterlimit:10;}
</style>
<g id="XMLID_356_">
	<path id="XMLID_408_" class="st0" d="M10.8,71c1.9-0.4,3.6-0.8,5.3-1.1c1.7-0.4,3.3-0.7,4.9-1s3.1-0.7,4.6-1
		c1.5-0.3,2.9-0.6,4.4-0.9c1.4-0.3,2.8-0.6,4.2-0.9c1.4-0.3,2.8-0.6,4.2-0.9c1.4-0.3,2.8-0.6,4.2-0.9s2.9-0.6,4.4-0.9
		c1.5-0.3,3-0.6,4.6-1c1.6-0.3,3.2-0.7,4.9-1c1.7-0.4,3.5-0.7,5.3-1.1c1.3,1.5,2.4,2.9,3.5,4.1c1.1,1.3,2.1,2.5,3.1,3.6
		s1.9,2.3,2.9,3.4s1.9,2.2,2.9,3.4s2,2.4,3.1,3.6c1.1,1.3,2.2,2.7,3.5,4.1c-1.9,0.4-3.6,0.8-5.3,1.1s-3.3,0.7-4.9,1
		c-1.6,0.3-3.1,0.7-4.6,1c-1.5,0.3-2.9,0.6-4.4,0.9s-2.8,0.6-4.2,0.9c-1.4,0.3-2.8,0.6-4.2,0.9c-1.4,0.3-2.8,0.6-4.2,0.9
		c-1.4,0.3-2.9,0.6-4.4,0.9c-1.5,0.3-3,0.6-4.6,1s-3.2,0.7-4.9,1c-1.7,0.4-3.5,0.7-5.3,1.1c-1.3-1.5-2.4-2.9-3.5-4.1
		c-1.1-1.3-2.1-2.5-3.1-3.6s-1.9-2.3-2.9-3.4c-0.9-1.1-1.9-2.2-2.9-3.4c-1-1.2-2-2.4-3.1-3.6C13.2,73.9,12,72.5,10.8,71z"/>
	<path id="XMLID_406_" class="st0" d="M61.7,60.3c1.9-0.4,3.6-0.8,5.3-1.1s3.3-0.7,4.9-1c1.6-0.3,3.1-0.7,4.6-1
		c1.5-0.3,2.9-0.6,4.4-0.9s2.8-0.6,4.2-0.9c1.4-0.3,2.8-0.6,4.2-0.9c1.4-0.3,2.8-0.6,4.2-0.9s2.9-0.6,4.4-0.9s3-0.6,4.6-1
		s3.2-0.7,4.9-1c1.7-0.4,3.5-0.7,5.3-1.1c1.3,1.5,2.4,2.9,3.5,4.1c1.1,1.3,2.1,2.5,3.1,3.6s1.9,2.3,2.9,3.4s1.9,2.2,2.9,3.4
		s2,2.4,3.1,3.6c1.1,1.3,2.2,2.7,3.5,4.1c-1.9,0.4-3.6,0.8-5.3,1.1s-3.3,0.7-4.9,1s-3.1,0.7-4.6,1c-1.5,0.3-2.9,0.6-4.4,0.9
		s-2.8,0.6-4.2,0.9c-1.4,0.3-2.8,0.6-4.2,0.9c-1.4,0.3-2.8,0.6-4.2,0.9c-1.4,0.3-2.9,0.6-4.4,0.9s-3,0.6-4.6,1
		c-1.6,0.3-3.2,0.7-4.9,1c-1.7,0.4-3.5,0.7-5.3,1.1c-1.3-1.5-2.4-2.9-3.5-4.1C76,77.3,75,76.1,74,74.9s-1.9-2.3-2.9-3.4
		s-1.9-2.2-2.9-3.4s-2-2.4-3.1-3.6C64.1,63.2,62.9,61.8,61.7,60.3z"/>
	<path id="XMLID_405_" class="st0" d="M112.6,49.6c1.9-0.4,3.6-0.8,5.3-1.1s3.3-0.7,4.9-1s3.1-0.7,4.6-1c1.5-0.3,2.9-0.6,4.4-0.9
		c1.4-0.3,2.8-0.6,4.2-0.9c1.4-0.3,2.8-0.6,4.2-0.9c1.4-0.3,2.8-0.6,4.2-0.9s2.9-0.6,4.4-0.9c1.5-0.3,3-0.6,4.6-1
		c1.6-0.3,3.2-0.7,4.9-1s3.5-0.7,5.3-1.1c1.3,1.5,2.4,2.9,3.5,4.1c1.1,1.3,2.1,2.5,3.1,3.6s1.9,2.3,2.9,3.4s1.9,2.2,2.9,3.4
		s2,2.4,3.1,3.6c1.1,1.3,2.2,2.7,3.5,4.1c-1.9,0.4-3.6,0.8-5.3,1.1c-1.7,0.4-3.3,0.7-4.9,1c-1.6,0.3-3.1,0.7-4.6,1
		c-1.5,0.3-2.9,0.6-4.4,0.9s-2.8,0.6-4.2,0.9s-2.8,0.6-4.2,0.9c-1.4,0.3-2.8,0.6-4.2,0.9s-2.9,0.6-4.4,0.9c-1.5,0.3-3,0.6-4.6,1
		c-1.6,0.3-3.2,0.7-4.9,1c-1.7,0.4-3.5,0.7-5.3,1.1c-1.3-1.5-2.4-2.9-3.5-4.1c-1.1-1.3-2.1-2.5-3.1-3.6s-1.9-2.3-2.9-3.4
		s-1.9-2.2-2.9-3.4s-2-2.4-3.1-3.6C115,52.4,113.8,51.1,112.6,49.6z"/>
	<path id="XMLID_404_" class="st0" d="M163.4,38.8c1.9-0.4,3.6-0.8,5.3-1.1c1.7-0.4,3.3-0.7,4.9-1c1.6-0.3,3.1-0.7,4.6-1
		c1.5-0.3,2.9-0.6,4.4-0.9c1.4-0.3,2.8-0.6,4.2-0.9c1.4-0.3,2.8-0.6,4.2-0.9c1.4-0.3,2.8-0.6,4.2-0.9c1.4-0.3,2.9-0.6,4.4-0.9
		c1.5-0.3,3-0.6,4.6-1c1.6-0.3,3.2-0.7,4.9-1c1.7-0.4,3.5-0.7,5.3-1.1c1.3,1.5,2.4,2.9,3.5,4.1c1.1,1.3,2.1,2.5,3.1,3.6
		s1.9,2.3,2.9,3.4s1.9,2.2,2.9,3.4c1,1.2,2,2.4,3.1,3.6c1.1,1.3,2.2,2.7,3.5,4.1c-1.9,0.4-3.6,0.8-5.3,1.1c-1.7,0.4-3.3,0.7-4.9,1
		c-1.6,0.3-3.1,0.7-4.6,1c-1.5,0.3-2.9,0.6-4.4,0.9s-2.8,0.6-4.2,0.9c-1.4,0.3-2.8,0.6-4.2,0.9c-1.4,0.3-2.8,0.6-4.2,0.9
		c-1.4,0.3-2.9,0.6-4.4,0.9c-1.5,0.3-3,0.6-4.6,1c-1.6,0.3-3.2,0.7-4.9,1c-1.7,0.4-3.5,0.7-5.3,1.1c-1.3-1.5-2.4-2.9-3.5-4.1
		c-1.1-1.3-2.1-2.5-3.1-3.6s-1.9-2.3-2.9-3.4s-1.9-2.2-2.9-3.4s-2-2.4-3.1-3.6C165.9,41.7,164.7,40.3,163.4,38.8z"/>
	<path id="XMLID_377_" class="st0" d="M214.3,28.1c1.9-0.4,3.6-0.8,5.3-1.1c1.7-0.4,3.3-0.7,4.9-1c1.6-0.3,3.1-0.7,4.6-1
		c1.5-0.3,2.9-0.6,4.4-0.9c1.4-0.3,2.8-0.6,4.2-0.9c1.4-0.3,2.8-0.6,4.2-0.9c1.4-0.3,2.8-0.6,4.2-0.9s2.9-0.6,4.4-0.9
		c1.5-0.3,3-0.6,4.6-1c1.6-0.3,3.2-0.7,4.9-1c1.7-0.4,3.5-0.7,5.3-1.1c1.3,1.5,2.4,2.9,3.5,4.1c1.1,1.3,2.1,2.5,3.1,3.6
		s1.9,2.3,2.9,3.4s1.9,2.2,2.9,3.4c1,1.2,2,2.4,3.1,3.6c1.1,1.3,2.2,2.7,3.5,4.1c-1.9,0.4-3.6,0.8-5.3,1.1c-1.7,0.4-3.3,0.7-4.9,1
		s-3.1,0.7-4.6,1c-1.5,0.3-2.9,0.6-4.4,0.9s-2.8,0.6-4.2,0.9c-1.4,0.3-2.8,0.6-4.2,0.9c-1.4,0.3-2.8,0.6-4.2,0.9
		c-1.4,0.3-2.9,0.6-4.4,0.9c-1.5,0.3-3,0.6-4.6,1c-1.6,0.3-3.2,0.7-4.9,1s-3.5,0.7-5.3,1.1c-1.3-1.5-2.4-2.9-3.5-4.1
		c-1.1-1.3-2.1-2.5-3.1-3.6c-1-1.2-1.9-2.3-2.9-3.4s-1.9-2.2-2.9-3.4s-2-2.4-3.1-3.6C216.7,30.9,215.6,29.6,214.3,28.1z"/>
	<path id="XMLID_376_" class="st0" d="M29.7,93.4c1.9-0.4,3.6-0.8,5.3-1.1c1.7-0.4,3.3-0.7,4.9-1s3.1-0.7,4.6-1
		c1.5-0.3,2.9-0.6,4.4-0.9c1.4-0.3,2.8-0.6,4.2-0.9c1.4-0.3,2.8-0.6,4.2-0.9c1.4-0.3,2.8-0.6,4.2-0.9s2.9-0.6,4.4-0.9
		c1.5-0.3,3-0.6,4.6-1c1.6-0.3,3.2-0.7,4.9-1s3.5-0.7,5.3-1.1c1.3,1.5,2.4,2.9,3.5,4.1c1.1,1.3,2.1,2.5,3.1,3.6
		c1,1.2,1.9,2.3,2.9,3.4c0.9,1.1,1.9,2.2,2.9,3.4s2,2.4,3.1,3.6c1.1,1.3,2.2,2.7,3.5,4.1c-1.9,0.4-3.6,0.8-5.3,1.1s-3.3,0.7-4.9,1
		s-3.1,0.7-4.6,1s-2.9,0.6-4.4,0.9s-2.8,0.6-4.2,0.9c-1.4,0.3-2.8,0.6-4.2,0.9c-1.4,0.3-2.8,0.6-4.2,0.9s-2.9,0.6-4.4,0.9
		c-1.5,0.3-3,0.6-4.6,1c-1.6,0.3-3.2,0.7-4.9,1c-1.7,0.4-3.5,0.7-5.3,1.1c-1.3-1.5-2.4-2.9-3.5-4.1c-1.1-1.3-2.1-2.5-3.1-3.6
		s-1.9-2.3-2.9-3.4s-1.9-2.2-2.9-3.4c-1-1.2-2-2.4-3.1-3.6C32.1,96.3,31,94.9,29.7,93.4z"/>
	<path id="XMLID_375_" class="st0" d="M80.6,82.7c1.9-0.4,3.6-0.8,5.3-1.1c1.7-0.4,3.3-0.7,4.9-1c1.6-0.3,3.1-0.7,4.6-1
		s2.9-0.6,4.4-0.9c1.4-0.3,2.8-0.6,4.2-0.9c1.4-0.3,2.8-0.6,4.2-0.9c1.4-0.3,2.8-0.6,4.2-0.9s2.9-0.6,4.4-0.9c1.5-0.3,3-0.6,4.6-1
		s3.2-0.7,4.9-1s3.5-0.7,5.3-1.1c1.1,1.3,2.1,2.5,3,3.6c0.9,1.1,1.8,2.2,2.7,3.2c0.9,1,1.7,2,2.5,3c0.8,1,1.6,1.9,2.5,2.9
		c0.8,0.9,1.7,1.9,2.5,3c0.8,1.1,1.6,2.4,2.4,3.8c0.8,1.4,1.5,3.1,2.3,5c-1.5-0.3-3-0.4-4.5-0.4s-3.1,0.2-4.6,0.5
		c-1.6,0.3-3.1,0.7-4.6,1c-1.5,0.3-2.9,0.6-4.4,0.9s-2.8,0.6-4.2,0.9c-1.4,0.3-2.8,0.6-4.2,0.9c-1.4,0.3-2.8,0.6-4.2,0.9
		c-1.4,0.3-2.9,0.6-4.4,0.9c-1.5,0.3-3,0.6-4.6,1s-3.2,0.7-4.9,1c-1.7,0.4-3.5,0.7-5.3,1.1c-1.3-1.5-2.4-2.9-3.5-4.1
		c-1.1-1.3-2.1-2.5-3.1-3.6S91,95,90,93.9c-0.9-1.1-1.9-2.2-2.9-3.4c-1-1.2-2-2.4-3.1-3.6C83,85.5,81.8,84.2,80.6,82.7z"/>
	<path id="XMLID_374_" class="st0" d="M171.8,97.1c-0.9,0.2-1.8,0.5-2.7,0.6c-1.4,0.3-2.7,0.5-4,0.6s-2.6,0.1-3.9,0.1
		c-1.3-0.1-2.5-0.2-3.8-0.4c-1.3-0.2-2.6-0.5-3.9-0.8c-1.3-0.3-2.7-0.6-4.2-0.9c-0.7-1.9-1.5-3.5-2.3-5c-0.8-1.4-1.6-2.7-2.4-3.8
		c-0.8-1.1-1.6-2.1-2.5-3c-0.8-0.9-1.6-1.9-2.5-2.9c-0.8-1-1.6-1.9-2.5-3c-0.9-1-1.8-2.1-2.7-3.2c-0.9-1.1-2-2.3-3-3.6
		c1.9-0.4,3.6-0.8,5.3-1.1c1.7-0.4,3.3-0.7,4.9-1c1.6-0.3,3.1-0.7,4.6-1c1.5-0.3,2.9-0.6,4.4-0.9s2.8-0.6,4.2-0.9
		c1.4-0.3,2.8-0.6,4.2-0.9s2.8-0.6,4.2-0.9s2.9-0.6,4.4-0.9c1.5-0.3,3-0.6,4.6-1c1.6-0.3,3.2-0.7,4.9-1c1.7-0.4,3.5-0.7,5.3-1.1
		c1.1,1.3,2.1,2.5,3,3.6c0.9,1.1,1.8,2.2,2.7,3.2c0.9,1,1.7,2,2.5,3c0.8,1,1.6,1.9,2.4,2.9c0.8,1,1.6,1.9,2.5,3
		c0.9,1,1.8,1.9,2.6,3.3s1.5,3.2,2.1,5.2c-2.1,0.8-4.5,1.8-6.5,2.7"/>
	<path id="XMLID_373_" class="st0" d="M182.4,61.2c1.9-0.4,3.6-0.8,5.3-1.1c1.7-0.4,3.3-0.7,4.9-1c1.6-0.3,3.1-0.7,4.6-1
		c1.5-0.3,2.9-0.6,4.4-0.9c1.4-0.3,2.8-0.6,4.2-0.9c1.4-0.3,2.8-0.6,4.2-0.9c1.4-0.3,2.8-0.6,4.2-0.9s2.9-0.6,4.4-0.9
		c1.5-0.3,3-0.6,4.6-1c1.6-0.3,3.2-0.7,4.9-1c1.7-0.4,3.5-0.7,5.3-1.1c1.3,1.5,2.4,2.9,3.5,4.1c1.1,1.3,2.1,2.5,3.1,3.6
		c1,1.2,1.9,2.3,2.9,3.4s1.9,2.2,2.9,3.4s2,2.4,3.1,3.6c1.1,1.3,2.2,2.7,3.5,4.1c-1.9,0.4-3.6,0.8-5.3,1.1c-1.7,0.4-3.3,0.7-4.9,1
		c-1.6,0.3-3.1,0.7-4.6,1s-2.9,0.6-4.4,0.9s-2.8,0.6-4.2,0.9c-1.4,0.3-2.8,0.6-4.2,0.9s-2.8,0.6-4.2,0.9s-2.8,0.6-4.3,0.9
		c-1.5,0.3-3,0.7-4.7,1.2c-1.6,0.4-3.4,1-5.2,1.6s-3.8,1.3-5.9,2.2c-0.6-2.1-1.3-3.9-2.1-5.2s-1.8-2.3-2.6-3.3c-0.9-1-1.7-2-2.5-3
		c-0.8-1-1.6-1.9-2.4-2.9c-0.8-1-1.6-1.9-2.5-3c-0.9-1-1.8-2.1-2.7-3.2C184.4,63.7,183.4,62.5,182.4,61.2z"/>
	<path id="XMLID_372_" class="st0" d="M233.2,50.4c1.9-0.4,3.6-0.8,5.3-1.1s3.3-0.7,4.9-1c1.6-0.3,3.1-0.7,4.6-1
		c1.5-0.3,2.9-0.6,4.4-0.9c1.4-0.3,2.8-0.6,4.2-0.9c1.4-0.3,2.8-0.6,4.2-0.9c1.4-0.3,2.8-0.6,4.2-0.9s2.9-0.6,4.4-0.9
		c1.5-0.3,3-0.6,4.6-1s3.2-0.7,4.9-1c1.7-0.4,3.5-0.7,5.3-1.1c1.3,1.5,2.4,2.9,3.5,4.1c1.1,1.3,2.1,2.5,3.1,3.6s1.9,2.3,2.9,3.4
		c0.9,1.1,1.9,2.2,2.9,3.4c1,1.2,2,2.4,3.1,3.6c1.1,1.3,2.2,2.7,3.5,4.1c-1.9,0.4-3.6,0.8-5.3,1.1c-1.7,0.4-3.3,0.7-4.9,1
		c-1.6,0.3-3.1,0.7-4.6,1s-2.9,0.6-4.4,0.9s-2.8,0.6-4.2,0.9c-1.4,0.3-2.8,0.6-4.2,0.9c-1.4,0.3-2.8,0.6-4.2,0.9
		c-1.4,0.3-2.9,0.6-4.4,0.9c-1.5,0.3-3,0.6-4.6,1c-1.6,0.3-3.2,0.7-4.9,1c-1.7,0.4-3.5,0.7-5.3,1.1c-1.3-1.5-2.4-2.9-3.5-4.1
		c-1.1-1.3-2.1-2.5-3.1-3.6s-1.9-2.3-2.9-3.4s-1.9-2.2-2.9-3.4c-1-1.2-2-2.4-3.1-3.6C235.7,53.3,234.5,51.9,233.2,50.4z"/>
	<path id="XMLID_371_" class="st0" d="M48.6,115.8c1.9-0.4,3.6-0.8,5.3-1.1c1.7-0.4,3.3-0.7,4.9-1c1.6-0.3,3.1-0.7,4.6-1
		c1.5-0.3,2.9-0.6,4.4-0.9s2.8-0.6,4.2-0.9c1.4-0.3,2.8-0.6,4.2-0.9c1.4-0.3,2.8-0.6,4.2-0.9s2.9-0.6,4.4-0.9s3-0.6,4.6-1
		s3.2-0.7,4.9-1s3.5-0.7,5.3-1.1c1.3,1.5,2.4,2.9,3.5,4.1c1.1,1.3,2.1,2.5,3.1,3.6c1,1.2,1.9,2.3,2.9,3.4s1.9,2.2,2.9,3.4
		s2,2.4,3.1,3.6c1.1,1.3,2.2,2.7,3.5,4.1c-1.9,0.4-3.6,0.8-5.3,1.1s-3.3,0.7-4.9,1s-3.1,0.7-4.6,1c-1.5,0.3-2.9,0.6-4.4,0.9
		s-2.8,0.6-4.2,0.9c-1.4,0.3-2.8,0.6-4.2,0.9c-1.4,0.3-2.8,0.6-4.2,0.9c-1.4,0.3-2.9,0.6-4.4,0.9s-3,0.6-4.6,1
		c-1.6,0.3-3.2,0.7-4.9,1c-1.7,0.4-3.5,0.7-5.3,1.1c-1.3-1.5-2.4-2.9-3.5-4.1c-1.1-1.3-2.1-2.5-3.1-3.6s-1.9-2.3-2.9-3.4
		s-1.9-2.2-2.9-3.4c-1-1.2-2-2.4-3.1-3.6C51,118.7,49.9,117.3,48.6,115.8z"/>
	<path id="XMLID_370_" class="st0" d="M99.5,105.1c1.9-0.4,3.6-0.8,5.3-1.1c1.7-0.4,3.3-0.7,4.9-1s3.1-0.7,4.6-1
		c1.5-0.3,2.9-0.6,4.4-0.9c1.4-0.3,2.8-0.6,4.2-0.9c1.4-0.3,2.8-0.6,4.2-0.9c1.4-0.3,2.8-0.6,4.2-0.9s2.9-0.6,4.4-0.9
		c1.5-0.3,3-0.6,4.6-1c1.6-0.3,3.1-0.5,4.6-0.5s3,0.2,4.5,0.4c0.7,1.9,1.4,3.7,2,5.5c0.6,1.7,1.2,3.3,1.8,4.9c0.6,1.5,1.2,2.9,1.9,4
		c0.7,1.2,1.5,2.1,2.4,3c0.9,0.8,1.9,1.5,3,2.1c1.1,0.6,2.3,1,3.7,1.4c1.3,0.4,2.8,0.7,4.3,1.2c-1.6-0.1-3.2,0-4.7,0.1
		c-1.6,0.1-3.1,0.3-4.6,0.5c-1.5,0.2-3,0.5-4.5,0.8s-2.9,0.6-4.4,0.9s-2.8,0.6-4.2,0.9c-1.4,0.3-2.8,0.6-4.2,0.9
		c-1.4,0.3-2.8,0.6-4.2,0.9s-2.9,0.6-4.4,0.9c-1.5,0.3-3,0.6-4.6,1c-1.6,0.3-3.2,0.7-4.9,1c-1.7,0.4-3.5,0.7-5.3,1.1
		c-1.3-1.5-2.4-2.9-3.5-4.1c-1.1-1.3-2.1-2.5-3.1-3.6s-1.9-2.3-2.9-3.4s-1.9-2.2-2.9-3.4c-1-1.2-2-2.4-3.1-3.6
		C101.9,107.9,100.8,106.5,99.5,105.1z"/>
	<path id="XMLID_67_" class="st0" d="M194.2,87.9c2-0.9,4-1.7,6.1-2.6c0.6,2.1,1.2,4.1,1.7,5.9s1.1,3.5,1.7,5c0.6,1.5,1.3,2.7,2,3.8
		c0.7,1.1,1.6,2,2.5,2.8c0.9,0.8,1.9,1.4,3.1,1.9c1.2,0.5,2.3,1,3.6,1.5c1.3,0.5,2.7,1,4.1,1.7c-2.2,1-4.4,2.1-6.4,3.1
		c-2.1,1-4,2-5.9,2.8c-1.9,0.9-3.7,1.7-5.3,2.3c-1.7,0.7-3.3,1.3-4.8,1.8s-3,0.9-4.4,1.2c-1.4,0.3-2.7,0.5-4,0.7
		c-1.3,0.1-2.6,0.2-3.8,0.1c-1.2,0-2.4-0.2-3.7-0.3c-1.2-0.1-2.5-0.3-3.8-0.4c-1.3-0.2-2.6-0.4-4-0.5c-1.4-0.2-2.9-0.3-4.5-0.3
		c-1.5-0.5-3-0.8-4.3-1.2c-1.3-0.4-2.6-0.9-3.7-1.4c-1.1-0.6-2.1-1.3-3-2.1c-0.9-0.8-1.7-1.8-2.4-3c-0.7-1.2-1.3-2.5-1.9-4
		c-0.6-1.5-1.2-3.1-1.8-4.9c-0.6-1.7-1.3-3.6-2-5.5c1.5,0.3,2.9,0.6,4.2,0.9c1.3,0.3,2.6,0.6,3.9,0.8c1.3,0.2,2.5,0.3,3.8,0.4
		c1.3,0.1,2.6,0,3.9-0.1s2.7-0.3,4-0.6c0.7-0.1,1.4-0.3,2.1-0.5"/>
	<path id="XMLID_368_" class="st0" d="M200.3,85.3c2.1-0.8,4.1-1.5,5.9-2.2s3.6-1.1,5.2-1.6c1.6-0.4,3.2-0.8,4.7-1.2
		c1.5-0.3,2.9-0.6,4.3-0.9s2.8-0.6,4.2-0.9s2.8-0.6,4.2-0.9c1.4-0.3,2.8-0.6,4.2-0.9s2.9-0.6,4.4-0.9s3-0.6,4.6-1
		c1.6-0.3,3.2-0.7,4.9-1c1.7-0.4,3.5-0.7,5.3-1.1c1.3,1.5,2.4,2.9,3.5,4.1c1.1,1.3,2.1,2.5,3.1,3.6c1,1.2,1.9,2.3,2.9,3.4
		s1.9,2.2,2.9,3.4s2,2.4,3.1,3.6c1.1,1.3,2.2,2.7,3.5,4.1c-1.9,0.4-3.6,0.8-5.3,1.1c-1.7,0.4-3.3,0.7-4.9,1c-1.6,0.3-3.1,0.7-4.6,1
		s-2.9,0.6-4.4,0.9s-2.8,0.6-4.2,0.9c-1.4,0.3-2.8,0.6-4.2,0.9s-2.8,0.6-4.2,0.9s-2.9,0.6-4.4,0.9c-1.5,0.3-3,0.6-4.6,1
		c-1.6,0.3-3.3,0.8-5.2,1.5c-1.9,0.7-4,1.6-6.2,2.7c-1.4-0.7-2.8-1.2-4.1-1.7c-1.3-0.5-2.5-1-3.6-1.5c-1.2-0.5-2.2-1.1-3.1-1.9
		c-0.9-0.8-1.7-1.7-2.5-2.8c-0.7-1.1-1.4-2.4-2-3.8c-0.6-1.5-1.2-3.1-1.7-5S201,87.4,200.3,85.3z"/>
	<path id="XMLID_367_" class="st0" d="M252.2,72.8c1.9-0.4,3.6-0.8,5.3-1.1c1.7-0.4,3.3-0.7,4.9-1c1.6-0.3,3.1-0.7,4.6-1
		c1.5-0.3,2.9-0.6,4.4-0.9c1.4-0.3,2.8-0.6,4.2-0.9c1.4-0.3,2.8-0.6,4.2-0.9c1.4-0.3,2.8-0.6,4.2-0.9s2.9-0.6,4.4-0.9s3-0.6,4.6-1
		c1.6-0.3,3.2-0.7,4.9-1c1.7-0.4,3.5-0.7,5.3-1.1c1.3,1.5,2.4,2.9,3.5,4.1c1.1,1.3,2.1,2.5,3.1,3.6c1,1.2,1.9,2.3,2.9,3.4
		s1.9,2.2,2.9,3.4s2,2.4,3.1,3.6c1.1,1.3,2.2,2.7,3.5,4.1c-1.9,0.4-3.6,0.8-5.3,1.1c-1.7,0.4-3.3,0.7-4.9,1c-1.6,0.3-3.1,0.7-4.6,1
		c-1.5,0.3-2.9,0.6-4.4,0.9s-2.8,0.6-4.2,0.9c-1.4,0.3-2.8,0.6-4.2,0.9c-1.4,0.3-2.8,0.6-4.2,0.9c-1.4,0.3-2.9,0.6-4.4,0.9
		c-1.5,0.3-3,0.6-4.6,1c-1.6,0.3-3.2,0.7-4.9,1c-1.7,0.4-3.5,0.7-5.3,1.1c-1.3-1.5-2.4-2.9-3.5-4.1c-1.1-1.3-2.1-2.5-3.1-3.6
		s-1.9-2.3-2.9-3.4s-1.9-2.2-2.9-3.4c-1-1.2-2-2.4-3.1-3.6C254.6,75.7,253.4,74.3,252.2,72.8z"/>
	<path id="XMLID_366_" class="st0" d="M67.5,138.2c1.9-0.4,3.6-0.8,5.3-1.1c1.7-0.4,3.3-0.7,4.9-1c1.6-0.3,3.1-0.7,4.6-1
		s2.9-0.6,4.4-0.9c1.4-0.3,2.8-0.6,4.2-0.9c1.4-0.3,2.8-0.6,4.2-0.9c1.4-0.3,2.8-0.6,4.2-0.9s2.9-0.6,4.4-0.9c1.5-0.3,3-0.6,4.6-1
		s3.2-0.7,4.9-1s3.5-0.7,5.3-1.1c1.3,1.5,2.4,2.9,3.5,4.1c1.1,1.3,2.1,2.5,3.1,3.6c1,1.2,1.9,2.3,2.9,3.4c0.9,1.1,1.9,2.2,2.9,3.4
		s2,2.4,3.1,3.6c1.1,1.3,2.2,2.7,3.5,4.1c-1.9,0.4-3.6,0.8-5.3,1.1s-3.3,0.7-4.9,1c-1.6,0.3-3.1,0.7-4.6,1c-1.5,0.3-2.9,0.6-4.4,0.9
		s-2.8,0.6-4.2,0.9c-1.4,0.3-2.8,0.6-4.2,0.9c-1.4,0.3-2.8,0.6-4.2,0.9c-1.4,0.3-2.9,0.6-4.4,0.9c-1.5,0.3-3,0.6-4.6,1
		s-3.2,0.7-4.9,1c-1.7,0.4-3.5,0.7-5.3,1.1c-1.3-1.5-2.4-2.9-3.5-4.1c-1.1-1.3-2.1-2.5-3.1-3.6s-1.9-2.3-2.9-3.4
		c-0.9-1.1-1.9-2.2-2.9-3.4c-1-1.2-2-2.4-3.1-3.6C69.9,141,68.8,139.7,67.5,138.2z"/>
	<path id="XMLID_365_" class="st0" d="M118.4,127.4c1.9-0.4,3.6-0.8,5.3-1.1c1.7-0.4,3.3-0.7,4.9-1c1.6-0.3,3.1-0.7,4.6-1
		c1.5-0.3,2.9-0.6,4.4-0.9s2.8-0.6,4.2-0.9c1.4-0.3,2.8-0.6,4.2-0.9c1.4-0.3,2.8-0.6,4.2-0.9s2.9-0.6,4.4-0.9s3-0.6,4.5-0.8
		c1.5-0.2,3-0.4,4.6-0.5c1.6-0.1,3.1-0.1,4.7-0.1c1.8,0.6,3.3,1.3,4.5,2.4s2.1,2.5,3.1,3.6c1,1.2,1.9,2.3,2.9,3.4s1.9,2.2,2.9,3.4
		s2,2.4,3.1,3.6c1.1,1.3,2.2,2.7,3.5,4.1c-1.9,0.4-3.6,0.8-5.3,1.1c-1.7,0.4-3.3,0.7-4.9,1c-1.6,0.3-3.1,0.7-4.6,1
		c-1.5,0.3-2.9,0.6-4.4,0.9s-2.8,0.6-4.2,0.9c-1.4,0.3-2.8,0.6-4.2,0.9c-1.4,0.3-2.8,0.6-4.2,0.9c-1.4,0.3-2.9,0.6-4.4,0.9
		s-3,0.6-4.6,1c-1.6,0.3-3.2,0.7-4.9,1c-1.7,0.4-3.5,0.7-5.3,1.1c-1.3-1.5-2.4-2.9-3.5-4.1c-1.1-1.3-2.1-2.5-3.1-3.6
		s-1.9-2.3-2.9-3.4c-0.9-1.1-1.9-2.2-2.9-3.4c-1-1.2-2-2.4-3.1-3.6C120.8,130.3,119.7,128.9,118.4,127.4z"/>
	<path id="XMLID_364_" class="st0" d="M168.3,118.4c1.6,0.1,3.1,0.2,4.5,0.3c1.4,0.2,2.8,0.3,4,0.5c1.3,0.2,2.6,0.3,3.8,0.4
		c1.2,0.1,2.4,0.3,3.7,0.3c1.2,0,2.5,0,3.8-0.1c1.3-0.1,2.6-0.3,4-0.7c1.4-0.3,2.9-0.7,4.4-1.2s3.1-1.1,4.8-1.8
		c1.7-0.7,3.5-1.5,5.3-2.3c1.9-0.9,3.8-1.8,5.9-2.8c2.1-1,4.2-2.1,6.4-3.1c1.7,0.8,3.1,1.6,4.4,2.6c1.3,1,2.4,2,3.4,3.1
		c1,1.1,1.9,2.3,2.9,3.4s1.9,2.2,2.9,3.4s2,2.4,3.1,3.6c1.1,1.3,2.2,2.7,3.5,4.1c-1.9,0.4-3.6,0.8-5.3,1.1c-1.7,0.4-3.3,0.7-4.9,1
		c-1.6,0.3-3.1,0.7-4.6,1s-2.9,0.6-4.4,0.9s-2.8,0.6-4.2,0.9c-1.4,0.3-2.8,0.6-4.2,0.9s-2.8,0.6-4.2,0.9s-2.9,0.6-4.4,0.9
		c-1.5,0.3-3,0.6-4.6,1c-1.6,0.3-3.2,0.7-4.9,1c-1.7,0.4-3.5,0.7-5.3,1.1c-1.3-1.5-2.4-2.9-3.5-4.1c-1.1-1.3-2.1-2.5-3.1-3.6
		s-1.9-2.3-2.9-3.4s-1.9-2.2-2.9-3.4c-1-1.2-1.9-2.5-3.1-3.6S170.1,119,168.3,118.4z"/>
	<path id="XMLID_363_" class="st0" d="M219.1,108c2.2-1,4.3-1.9,6.2-2.7c1.9-0.7,3.6-1.2,5.2-1.5c1.6-0.3,3.1-0.7,4.6-1
		c1.5-0.3,2.9-0.6,4.4-0.9s2.8-0.6,4.2-0.9s2.8-0.6,4.2-0.9c1.4-0.3,2.8-0.6,4.2-0.9s2.9-0.6,4.4-0.9s3-0.6,4.6-1
		c1.6-0.3,3.2-0.7,4.9-1c1.7-0.4,3.5-0.7,5.3-1.1c1.3,1.5,2.4,2.9,3.5,4.1c1.1,1.3,2.1,2.5,3.1,3.6c1,1.2,1.9,2.3,2.9,3.4
		s1.9,2.2,2.9,3.4s2,2.4,3.1,3.6c1.1,1.3,2.2,2.7,3.5,4.1c-1.9,0.4-3.6,0.8-5.3,1.1c-1.7,0.4-3.3,0.7-4.9,1c-1.6,0.3-3.1,0.7-4.6,1
		c-1.5,0.3-2.9,0.6-4.4,0.9s-2.8,0.6-4.2,0.9c-1.4,0.3-2.8,0.6-4.2,0.9c-1.4,0.3-2.8,0.6-4.2,0.9c-1.4,0.3-2.9,0.6-4.4,0.9
		c-1.5,0.3-3,0.6-4.6,1c-1.6,0.3-3.2,0.7-4.9,1c-1.7,0.4-3.5,0.7-5.3,1.1c-1.3-1.5-2.4-2.9-3.5-4.1c-1.1-1.3-2.1-2.5-3.1-3.6
		s-1.9-2.3-2.9-3.4s-1.9-2.3-2.9-3.4c-1-1.1-2.1-2.2-3.4-3.1C222.2,109.6,220.7,108.8,219.1,108z"/>
	<path id="XMLID_362_" class="st0" d="M271.1,95.2c1.9-0.4,3.6-0.8,5.3-1.1c1.7-0.4,3.3-0.7,4.9-1c1.6-0.3,3.1-0.7,4.6-1
		c1.5-0.3,2.9-0.6,4.4-0.9c1.4-0.3,2.8-0.6,4.2-0.9c1.4-0.3,2.8-0.6,4.2-0.9c1.4-0.3,2.8-0.6,4.2-0.9s2.9-0.6,4.4-0.9
		c1.5-0.3,3-0.6,4.6-1c1.6-0.3,3.2-0.7,4.9-1c1.7-0.4,3.5-0.7,5.3-1.1c1.3,1.5,2.4,2.9,3.5,4.1c1.1,1.3,2.1,2.5,3.1,3.6
		c1,1.2,1.9,2.3,2.9,3.4s1.9,2.2,2.9,3.4s2,2.4,3.1,3.6c1.1,1.3,2.2,2.7,3.5,4.1c-1.9,0.4-3.6,0.8-5.3,1.1c-1.7,0.4-3.3,0.7-4.9,1
		s-3.1,0.7-4.6,1c-1.5,0.3-2.9,0.6-4.4,0.9s-2.8,0.6-4.2,0.9c-1.4,0.3-2.8,0.6-4.2,0.9c-1.4,0.3-2.8,0.6-4.2,0.9s-2.9,0.6-4.4,0.9
		c-1.5,0.3-3,0.6-4.6,1c-1.6,0.3-3.2,0.7-4.9,1c-1.7,0.4-3.5,0.7-5.3,1.1c-1.3-1.5-2.4-2.9-3.5-4.1c-1.1-1.3-2.1-2.5-3.1-3.6
		s-1.9-2.3-2.9-3.4s-1.9-2.2-2.9-3.4c-1-1.2-2-2.4-3.1-3.6C273.5,98.1,272.4,96.7,271.1,95.2z"/>
	<path id="XMLID_361_" class="st0" d="M86.5,160.5c1.9-0.4,3.6-0.8,5.3-1.1c1.7-0.4,3.3-0.7,4.9-1s3.1-0.7,4.6-1
		c1.5-0.3,2.9-0.6,4.4-0.9c1.4-0.3,2.8-0.6,4.2-0.9c1.4-0.3,2.8-0.6,4.2-0.9c1.4-0.3,2.8-0.6,4.2-0.9s2.9-0.6,4.4-0.9
		c1.5-0.3,3-0.6,4.6-1c1.6-0.3,3.2-0.7,4.9-1s3.5-0.7,5.3-1.1c1.3,1.5,2.4,2.9,3.5,4.1c1.1,1.3,2.1,2.5,3.1,3.6
		c1,1.2,1.9,2.3,2.9,3.4c0.9,1.1,1.9,2.2,2.9,3.4s2,2.4,3.1,3.6c1.1,1.3,2.2,2.7,3.5,4.1c-1.9,0.4-3.6,0.8-5.3,1.1s-3.3,0.7-4.9,1
		s-3.1,0.7-4.6,1s-2.9,0.6-4.4,0.9s-2.8,0.6-4.2,0.9c-1.4,0.3-2.8,0.6-4.2,0.9c-1.4,0.3-2.8,0.6-4.2,0.9s-2.9,0.6-4.4,0.9
		c-1.5,0.3-3,0.6-4.6,1c-1.6,0.3-3.2,0.7-4.9,1s-3.5,0.7-5.3,1.1c-1.3-1.5-2.4-2.9-3.5-4.1c-1.1-1.3-2.1-2.5-3.1-3.6
		s-1.9-2.3-2.9-3.4s-1.9-2.2-2.9-3.4c-1-1.2-2-2.4-3.1-3.6C88.9,163.4,87.7,162,86.5,160.5z"/>
	<path id="XMLID_360_" class="st0" d="M137.3,149.8c1.9-0.4,3.6-0.8,5.3-1.1c1.7-0.4,3.3-0.7,4.9-1c1.6-0.3,3.1-0.7,4.6-1
		s2.9-0.6,4.4-0.9c1.4-0.3,2.8-0.6,4.2-0.9c1.4-0.3,2.8-0.6,4.2-0.9c1.4-0.3,2.8-0.6,4.2-0.9s2.9-0.6,4.4-0.9c1.5-0.3,3-0.6,4.6-1
		c1.6-0.3,3.2-0.7,4.9-1c1.7-0.4,3.5-0.7,5.3-1.1c1.3,1.5,2.4,2.9,3.5,4.1c1.1,1.3,2.1,2.5,3.1,3.6c1,1.2,1.9,2.3,2.9,3.4
		s1.9,2.2,2.9,3.4s2,2.4,3.1,3.6c1.1,1.3,2.2,2.7,3.5,4.1c-1.9,0.4-3.6,0.8-5.3,1.1c-1.7,0.4-3.3,0.7-4.9,1c-1.6,0.3-3.1,0.7-4.6,1
		c-1.5,0.3-2.9,0.6-4.4,0.9s-2.8,0.6-4.2,0.9c-1.4,0.3-2.8,0.6-4.2,0.9c-1.4,0.3-2.8,0.6-4.2,0.9c-1.4,0.3-2.9,0.6-4.4,0.9
		c-1.5,0.3-3,0.6-4.6,1c-1.6,0.3-3.2,0.7-4.9,1c-1.7,0.4-3.5,0.7-5.3,1.1c-1.3-1.5-2.4-2.9-3.5-4.1c-1.1-1.3-2.1-2.5-3.1-3.6
		s-1.9-2.3-2.9-3.4c-0.9-1.1-1.9-2.2-2.9-3.4c-1-1.2-2-2.4-3.1-3.6C139.8,152.7,138.6,151.3,137.3,149.8z"/>
	<path id="XMLID_359_" class="st0" d="M188.2,139.1c1.9-0.4,3.6-0.8,5.3-1.1c1.7-0.4,3.3-0.7,4.9-1c1.6-0.3,3.1-0.7,4.6-1
		c1.5-0.3,2.9-0.6,4.4-0.9s2.8-0.6,4.2-0.9s2.8-0.6,4.2-0.9c1.4-0.3,2.8-0.6,4.2-0.9s2.9-0.6,4.4-0.9s3-0.6,4.6-1
		c1.6-0.3,3.2-0.7,4.9-1c1.7-0.4,3.5-0.7,5.3-1.1c1.3,1.5,2.4,2.9,3.5,4.1c1.1,1.3,2.1,2.5,3.1,3.6c1,1.2,1.9,2.3,2.9,3.4
		s1.9,2.2,2.9,3.4s2,2.4,3.1,3.6c1.1,1.3,2.2,2.7,3.5,4.1c-1.9,0.4-3.6,0.8-5.3,1.1c-1.7,0.4-3.3,0.7-4.9,1s-3.1,0.7-4.6,1
		c-1.5,0.3-2.9,0.6-4.4,0.9s-2.8,0.6-4.2,0.9s-2.8,0.6-4.2,0.9c-1.4,0.3-2.8,0.6-4.2,0.9c-1.4,0.3-2.9,0.6-4.4,0.9s-3,0.6-4.6,1
		c-1.6,0.3-3.2,0.7-4.9,1c-1.7,0.4-3.5,0.7-5.3,1.1c-1.3-1.5-2.4-2.9-3.5-4.1c-1.1-1.3-2.1-2.5-3.1-3.6s-1.9-2.3-2.9-3.4
		s-1.9-2.2-2.9-3.4c-1-1.2-2-2.4-3.1-3.6C190.6,141.9,189.5,140.6,188.2,139.1z"/>
	<path id="XMLID_358_" class="st0" d="M239.1,128.3c1.9-0.4,3.6-0.8,5.3-1.1c1.7-0.4,3.3-0.7,4.9-1c1.6-0.3,3.1-0.7,4.6-1
		c1.5-0.3,2.9-0.6,4.4-0.9c1.4-0.3,2.8-0.6,4.2-0.9c1.4-0.3,2.8-0.6,4.2-0.9c1.4-0.3,2.8-0.6,4.2-0.9s2.9-0.6,4.4-0.9
		c1.5-0.3,3-0.6,4.6-1c1.6-0.3,3.2-0.7,4.9-1c1.7-0.4,3.5-0.7,5.3-1.1c1.3,1.5,2.4,2.9,3.5,4.1c1.1,1.3,2.1,2.5,3.1,3.6
		c1,1.2,1.9,2.3,2.9,3.4s1.9,2.2,2.9,3.4s2,2.4,3.1,3.6c1.1,1.3,2.2,2.7,3.5,4.1c-1.9,0.4-3.6,0.8-5.3,1.1c-1.7,0.4-3.3,0.7-4.9,1
		c-1.6,0.3-3.1,0.7-4.6,1s-2.9,0.6-4.4,0.9s-2.8,0.6-4.2,0.9c-1.4,0.3-2.8,0.6-4.2,0.9s-2.8,0.6-4.2,0.9s-2.9,0.6-4.4,0.9
		c-1.5,0.3-3,0.6-4.6,1c-1.6,0.3-3.2,0.7-4.9,1c-1.7,0.4-3.5,0.7-5.3,1.1c-1.3-1.5-2.4-2.9-3.5-4.1c-1.1-1.3-2.1-2.5-3.1-3.6
		s-1.9-2.3-2.9-3.4s-1.9-2.2-2.9-3.4c-1-1.2-2-2.4-3.1-3.6C241.5,131.2,240.4,129.8,239.1,128.3z"/>
	<path id="XMLID_357_" class="st0" d="M290,117.6c1.9-0.4,3.6-0.8,5.3-1.1c1.7-0.4,3.3-0.7,4.9-1c1.6-0.3,3.1-0.7,4.6-1
		c1.5-0.3,2.9-0.6,4.4-0.9s2.8-0.6,4.2-0.9c1.4-0.3,2.8-0.6,4.2-0.9c1.4-0.3,2.8-0.6,4.2-0.9s2.9-0.6,4.4-0.9c1.5-0.3,3-0.6,4.6-1
		s3.2-0.7,4.9-1c1.7-0.4,3.5-0.7,5.3-1.1c1.3,1.5,2.4,2.9,3.5,4.1c1.1,1.3,2.1,2.5,3.1,3.6c1,1.2,1.9,2.3,2.9,3.4s1.9,2.2,2.9,3.4
		s2,2.4,3.1,3.6c1.1,1.3,2.2,2.7,3.5,4.1c-1.9,0.4-3.6,0.8-5.3,1.1c-1.7,0.4-3.3,0.7-4.9,1c-1.6,0.3-3.1,0.7-4.6,1
		c-1.5,0.3-2.9,0.6-4.4,0.9s-2.8,0.6-4.2,0.9c-1.4,0.3-2.8,0.6-4.2,0.9c-1.4,0.3-2.8,0.6-4.2,0.9c-1.4,0.3-2.9,0.6-4.4,0.9
		c-1.5,0.3-3,0.6-4.6,1c-1.6,0.3-3.2,0.7-4.9,1c-1.7,0.4-3.5,0.7-5.3,1.1c-1.3-1.5-2.4-2.9-3.5-4.1c-1.1-1.3-2.1-2.5-3.1-3.6
		s-1.9-2.3-2.9-3.4s-1.9-2.2-2.9-3.4c-1-1.2-2-2.4-3.1-3.6C292.4,120.4,291.3,119.1,290,117.6z"/>
</g>
<circle id="XMLID_354_" class="st0" cx="180.3" cy="86.6" r="13.6"/>
</svg>
