<svg xmlns="http://www.w3.org/2000/svg" viewBox="0 0 211 213"><path d="M36.5 208.1l-.2.2c.3.2.5.4.8.6.9-1.2 2.6-2.3 3.7-3.2 1.6-1.3 3.4-2.3 4.8-3.8.2-.2.2-.5 0-.7-.5-.6-1.7-1.6-2.5-1.6s-1.3.7-1.8 1.2c-1 1.1-2.2 1.9-3.3 2.8-1.3 1.1-2.9 2-4 3.3-.1.1-.2.3-.1.5.4 1.3 1.7 1.8 3 2 .6.1.6-.9 0-1-3.3-.4-.6-1.9.1-2.5 1.1-1 2.3-1.9 3.4-2.8.7-.5 1.2-1.2 1.8-1.7.9-.8 1.9-.3 2.7.7v-.7c-2.6 2.6-6.4 4.3-8.7 7.2-.4.5.4 1 .8.6l.2-.2c.4-.6-.3-1.3-.7-.9z"/><path d="M43.5 199.5c0-.6.1-.9.2-1.5.1-.9 0-1.8.2-2.7l-.6.3c.9.4.5 2.7 1.7 2.7.5 0 1-.7 1.3-1 .3-.3 1.4-1.4 1.9-1.5l-.6-.6c-.3 1.2.3 2.2 1.3 2.9.6.4 1.7.7 1.7-.4 0-.7-.9-.6-1 0-.1.8-1.7 1.5-2.3 1.9-.6.5-1.2 1.2-2 1.4-.6.2-.4 1.1.3 1 1.1-.3 2-1.2 2.8-1.8 1-.7 2.1-1.1 2.2-2.4h-1c.2-.2.2-.4-.1-.4-.2-.1-.3-.2-.4-.3-.5-.4-.7-.9-.6-1.5.1-.4-.2-.7-.6-.6-.5.1-.9.5-1.2.8-.2.2-.5.4-.7.6-.1.1-1.2 1-.8 1 .3 0-.2-.7-.3-1-.1-.2-.2-.5-.3-.7-.2-.5-.5-.8-1-1-.2-.1-.6.1-.6.3-.2.9-.1 1.7-.2 2.6-.1.6-.2 1.1-.2 1.8-.1.7.9.7.9.1z"/><path d="M121.2 140.7c-2.6.4-5 3.1-7 4.7-3.2 2.6-6.6 4.8-10 7-1.6 1-2.9 2.4-4.3 3.7-1.8 1.6-3.8 2.8-5.7 4.2-3 2.4-6 5-9.2 7.1-6.2 4.1-12 8.9-18.1 13.2-6.7 4.8-13.3 9.8-19.6 15.2-.5.4.2 1.1.7.7C54.4 191 61.3 186 68 181c5.7-4.3 11.5-8.7 17.4-12.7 3-2 5.9-4.3 8.7-6.7 1.6-1.4 3.6-2.4 5.2-3.7 1.6-1.3 2.9-3 4.6-4.2 3-2.2 6.3-4.1 9.3-6.2 1.2-.9 2.4-1.8 3.6-2.8 1.4-1.1 2.7-2.8 4.6-3.1.7 0 .4-1-.2-.9zm.2 2.2c-1.4.5-2.5 1.7-3.6 2.6-1.4 1.2-2.9 2.3-4.4 3.4-3.3 2.5-6.3 5.1-9.8 7.3-6.5 4.1-12.1 9.5-18.6 13.7-6.2 4.1-12.2 8.6-18 13.3-3.2 2.5-6.3 5-9.4 7.7-1.5 1.3-3.3 2.4-4.9 3.5-1.5 1-2.6 2.3-4 3.4.3.1.6.1.8.2v-.1c-.2-.6-1.1-.4-1 .3v.1c.1.4.6.5.8.2 1.7-1.4 3.2-2.8 5-4 1.2-.8 2.5-1.7 3.6-2.7 3-2.6 6.2-5.2 9.3-7.7 5.9-4.8 12.2-9.1 18.4-13.5 5.9-4.2 11.5-9.2 17.6-13.1 1.8-1.2 3.6-2.3 5.4-3.5 1.5-1 2.8-2.5 4.3-3.6l3.6-2.7c1.5-1.2 3.2-3.2 5.1-3.9.6-.2.4-1.2-.2-.9z"/><path d="M122.4 143.1l.1-.1c-.2-.2-.5-.4-.7-.6-.3 1.9-1.4 4-2.1 5.8-.8 2.2-1.7 4.3-2.6 6.5-1.7 4.4-3.6 8.9-5.2 13.3-1.7 4.6-3.3 9.4-5.3 13.9-1.1 2.4-2 4.9-3 7.4-1 2.3-1.4 4.9-2.7 7 .3 0 .6.1.9.1v-.1c-.2-.6-1.2-.3-1 .3v.1c.1.4.7.5.9.1 1.3-2.1 1.8-4.7 2.7-7 1-2.4 1.9-4.8 2.9-7.1 2-4.4 3.8-9.1 5.3-13.7 1.5-4.5 3.5-8.9 5.1-13.3.9-2.3 1.9-4.6 2.7-6.9.7-1.9 1.9-4.2 2.2-6.1.1-.4-.3-.9-.7-.6l-.1.1c-.4.4.1 1.3.6.9z"/><path d="M121.6 141.2l.1-.1c-.3-.1-.6-.1-.8-.2.2 1 1 2.5 2.2 2 .5-.2 1-.5 1.3-.9.3-.3.3-.7.3-1.2.1-.6.2-1.7-.7-1.8-.5 0-.9.3-1.3.6l-.6.6c-.2.2-.4.5-.6.6l.6.3c0-.1 0-.1-.1-.2-.2-.6-1.1-.4-1 .3 0 .1 0 .1.1.2.1.3.3.4.6.3.6-.1.9-.7 1.3-1.1.2-.2.4-.4.6-.5 0 0 .1 0 .1-.1.1 0 .1-.1-.1-.1v.6c0 .2-.1.4-.1.6 0 .3-.2.5-.5.6-.1.1-.4.3-.5.3-.2 0-.2-.2-.3-.3-.3-.4-.4-.6-.5-1.1-.1-.4-.6-.4-.8-.2l-.1.1c-.4.4.3 1.1.8.7z"/><path d="M121.6 140.8c-5.7.5-11.1 2.5-16.4 4.2-3.9 1.2-8.1 2-12 3.2-3.8 1.1-7.5 2.3-11.4 3.3-4.5 1.1-9.2 2-13.6 3.3-3.9 1.2-7.7 2.7-11.6 3.8-3.6 1-7.2 2.1-10.8 3-3.1.8-6.3 2.2-9.5 2.6-.6.1-.4 1 .1 1h.2c.6 0 .6-1 0-1h-.2c0 .3.1.7.1 1 3-.5 6.1-1.8 9.1-2.5 3.7-.9 7.3-2 10.9-3 3.9-1.1 7.6-2.5 11.5-3.8 4.3-1.4 8.8-2.1 13.2-3.2 7.6-1.9 15-4.4 22.6-6.2 6-1.4 11.7-4.1 17.8-4.6.6-.1.6-1.1 0-1.1zm84-22.6c-1.8.7-3.6 1.3-5.5 1.8-3.3 1-6.7 2.1-10 2.9-7.1 1.8-14.4 3.2-21.5 5.3-14.8 4.4-29.9 8.1-44.8 11.8-.6.2-.4 1.1.3 1 15-3.7 30-7.4 44.8-11.8 3.6-1.1 7.3-1.7 11-2.6 3.3-.8 6.7-1.8 10-2.6 3.4-.8 6.7-1.9 10-2.9 2-.6 3.9-1.2 5.8-1.9.8-.3.5-1.2-.1-1z"/><path d="M147.6 78.1c-2 4.8-4.2 9.6-5.9 14.5-1.9 5.3-3.7 10.6-5.8 15.8-2.3 5.7-4.5 11.3-6.8 17-1 2.4-1.9 5-2.8 7.5-.8 2.4-2.4 5-2.8 7.5.3 0 .7.1 1 .1v-.8c0-.6-1-.6-1 0v.8c0 .5.9.7 1 .1.3-2.5 1.9-4.8 2.7-7.2.8-2.5 1.8-4.9 2.7-7.4 2.2-5.5 4.4-11 6.6-16.6 2-5 3.7-10 5.5-15.1 1.9-5.3 4.2-10.6 6.4-15.8.3-.5-.6-1-.8-.4zM77.2 63c-1.8 9.3-6.8 17.7-9.1 26.9-1.8 7.2-4.2 14.3-6.6 21.4-.2.6.8.9 1 .3 2.3-7.1 4.8-14.2 6.6-21.4 2.3-9.2 7.3-17.5 9.1-26.9.1-.7-.8-1-1-.3z"/><path d="M77.7 63.6c.6 0 .6-1 0-1s-.6 1 0 1zm.8-3.2c.6 0 .6-1 0-1s-.6 1 0 1z"/><path d="M96.5 6c-.5 2.2-1.4 4.3-2 6.5-.7 2.4-1.4 4.8-2.3 7-1.7 4.3-3.5 8.6-5.2 12.9-1.7 4.3-2.8 8.9-4.2 13.3-1.5 4.7-3.3 9.2-4.7 13.9-.2.6.8.9 1 .3 1.3-4.6 3.1-9 4.5-13.5 1.5-4.6 2.6-9.3 4.4-13.8 1.7-4.3 3.6-8.5 5.2-12.8.8-2.2 1.5-4.5 2.2-6.7.7-2.3 1.6-4.6 2.1-6.9.1-.6-.9-.8-1-.2zM76.1 61.1c-6.2 1.4-12.6 2.4-18.7 4.1-6.4 1.8-12.7 3.9-19.1 5.4-11.3 2.6-22.5 5.7-33.4 9.7-.6.2-.3 1.2.3 1 10.9-4 22.1-7.1 33.4-9.7 6.3-1.5 12.4-3.4 18.7-5.2 6.3-1.8 12.8-2.8 19.2-4.3.5-.2.3-1.1-.4-1zm72.8-17.4c-11.4 2.7-22.9 5.3-34.3 7.7-5.8 1.2-11.6 2.7-17.5 4.1-5.7 1.4-11.2 3.5-16.9 4.7-.6.1-.4 1.1.3 1 5.6-1.2 10.9-3.3 16.4-4.6 6-1.4 11.9-2.9 17.9-4.2 11.5-2.4 22.9-5.1 34.3-7.7.7-.2.4-1.1-.2-1z"/><path d="M77.1 63.6v.1c.1.3.4.4.6.3.4-.1.6-.4.8-.8.1-.2.2-.5.4-.7.4-.4.8-.3 1.2-.1.5.1.8-.5.5-.8-.3-.4-.6-.9-.9-1.4-.3-.4-.4-.9-.8-1.1-.8-.5-1.6.2-2.2.7-.8.6-1.2 1.3-.8 2.3.3.7.9 1.8 1.8 1.7.6 0 .6-1 0-1-.5 0-1.1-1.4-.9-1.7.2-.3 1-1 1.3-1.1.4-.1.4.2.6.5.1.2.2.3.3.5.3.4.5.9.9 1.3.2-.3.3-.6.5-.8-.6-.2-1.3-.3-1.9.1-.4.4-.5 1.4-1 1.5l.6.3v-.1c-.1-.6-1.1-.3-1 .3z"/><path d="M79.7 61.8c1.8 1.1 2.7 4.5 3.6 6.3.9 1.8 1.8 3.5 3 5.1.2-.3.4-.5.6-.8-.8-.4-1.2-.6-2.1-.1-.4.2-.5.5-.8.8-.6.5.1 1-.4-.3-.8-2-2.3-3.7-3.3-5.5-.8-1.4-1.6-2.7-2.3-4.1-.3-.6-1.2-.1-.9.5.9 1.6 1.8 3.1 2.7 4.7.6 1.1 1.3 2 2 3 .6 1 1 2.1 1.7 3 .2.2.3.3.6.2h.3c.2 0 .3-.2.3-.3.4-1.1 1-1.4 1.9-1 .5.2 1-.3.6-.8-1.7-2.1-2.8-4.8-3.9-7.2-.6-1.3-1.5-3.5-2.9-4.3-.7-.4-1.2.5-.7.8zm30.1 60.7c0 .6.6 1.2.8 1.8.2.5.4 1.2.9 1.4.5.3 1-.1 1.3-.5.7-.8 1.2-1.3 2.3-1 .2 0 .4 0 .5-.1.6-.6-.1-1.3-.4-1.9-.3-.5-.7-.9-.9-1.5-.2-.4-.3-.7-.7-.8-1-.4-2.1.6-2.7 1.3-.6.7-1 1.4-.3 2.1.4.5 1.1-.2.7-.7-.3-.3.7-1.1.9-1.3.3-.3.8-.6 1.2-.2.1.1.3.4.4.6.4.6 1 1.4 1.2 2.1 0-.2.1-.3.1-.5l-.1.1c.2 0 .3-.1.5-.1-1.1-.3-2.1-.1-2.9.7 0 0-.6.8-.5.8-.1 0-.3-.5-.3-.5-.2-.3-.3-.7-.5-1-.1-.2-.4-.6-.4-.8-.2-.6-1.2-.6-1.1 0z"/><path d="M112.2 125.3c.8 1.9 1.9 3.9 3 5.8 1 1.7 1.9 3.7 3.2 5.2.3.3.7.1.8-.2.3-.6.2-1.7 1.6-1 .5.3 1-.4.6-.8-1.5-1.4-2.1-3.9-3.1-5.6-.9-1.8-2-3.5-3.1-5.1-.2-.3-.5-.3-.8-.1l-.1.1c-.5.4.2 1.1.7.7l.1-.1c-.3 0-.5-.1-.8-.1 1.2 1.9 2.4 3.8 3.4 5.8.9 1.7 1.4 3.8 2.9 5.2.2-.3.4-.5.6-.8-1.8-1-2.5.1-3.1 1.6.3-.1.6-.1.8-.2-1.3-1.6-2.4-3.8-3.4-5.6-.9-1.6-1.9-3.4-2.6-5.1-.1-.8-1-.3-.7.3z"/><path d="M118.9 135.6c.3.1.7 1 .8 1.2.3.4.5.8.7 1.2.3.6 1.1 1.2 1.7.5.5-.7-.1-1.5-.5-2-.3-.4-.6-.9-.8-1.4-.2-.4-.4-.7-.8-.9-.6-.2-.9.7-.3 1 .1.1.2.5.3.7.2.4.4.7.7 1 .1.2.3.4.4.6 0 .1.2.5.4.4l-.2-.3c-.3-.6-.7-1.2-1-1.7-.3-.5-.5-1.1-1.1-1.2-.7-.2-1 .8-.3.9z"/><path d="M118.3 135.5c-.3.8.3 1.4.7 2 .8 1.2 1.4 2.7 2 4 .2.5 1 .2.9-.3v-.2c0-.6-1-.6-1 0v.2l.9-.3c-.5-1-1-2.1-1.5-3.1-.1-.1-1.3-1.8-1.3-1.8.4-.6-.4-1.1-.7-.5zm2.2-.7c.3.8.9 1.6 1.4 2.4.3.5.6 1 .8 1.5.2.4.7.9.8 1.4.2.6 1.2.3 1-.3-.3-.8-.9-1.7-1.4-2.4-.3-.5-.5-1-.8-1.4-.3-.4-.7-.9-.8-1.4-.2-.7-1.2-.5-1 .2zM83.9 74.4c.6 1.8 2 3.3 3 4.8 1.1 1.8 2.1 3.7 3 5.6 2.2 4.6 4.9 9 7.4 13.4 2.2 3.8 4.5 7.5 6.7 11.3 2.2 4 3.7 8.3 6.5 11.9.4.5 1.3 0 .9-.5-2.6-3.4-4.2-7.4-6.1-11.2-1.9-3.9-4.5-7.5-6.6-11.3-2.3-4.2-4.7-8.4-7.1-12.6-1.1-1.9-1.8-3.9-3-5.8-1.1-1.9-3-3.9-3.7-6-.2-.5-1.2-.2-1 .4zm1.6-.9c1.6 1.7 2.8 4.2 3.9 6.3 1.1 2 2.3 3.9 3.5 5.9 2.5 4.3 4.6 8.9 7.1 13.2 2 3.4 3.6 7.2 5.8 10.5 1.4 2.1 2.6 4.3 3.7 6.5 1 1.8 1.6 3.7 3 5.2.4.4 1.1-.1.8-.6 0-.1-.1-.1-.1-.2-.3-.6-1.2-.1-.9.5 0 .1.1.1.1.2.3-.2.5-.4.8-.6-1.6-1.6-2.3-4-3.4-5.9-1.1-2-2.1-3.9-3.3-5.8-2.4-3.7-4.4-7.8-6.5-11.6-2.4-4.2-4.3-8.8-6.9-12.8-2.4-3.6-3.9-8.2-7-11.4-.3-.6-1 .1-.6.6z"/></svg>